<svg width="22" height="14" viewBox="0 0 22 14" fill="none" xmlns="http://www.w3.org/2000/svg">
<path d="M10.6667 14C11.7712 14 12.6979 13.0784 12.3195 12.0407C12.0089 11.1891 11.4969 10.4065 10.8117 9.75736C9.62395 8.63214 8.01304 8 6.33333 8C4.65363 8 3.04272 8.63214 1.85499 9.75736C1.16977 10.4065 0.657777 11.1891 0.347201 12.0407C-0.0312658 13.0784 0.895431 14 2 14L10.6667 14Z" fill="#606060"/>
<circle cx="6" cy="3.33333" r="3.33333" fill="#606060"/>
<path d="M19.3333 14C20.4379 14 21.3646 13.0784 20.9861 12.0407C20.6756 11.1891 20.1636 10.4065 19.4783 9.75736C18.2906 8.63214 16.6797 8 15 8C13.3203 8 11.7094 8.63214 10.5217 9.75736C9.83644 10.4065 9.32445 11.1891 9.01387 12.0407C8.63541 13.0784 9.5621 14 10.6667 14L19.3333 14Z" fill="#606060"/>
<circle cx="14.6667" cy="3.33333" r="3.33333" fill="#606060"/>
</svg>
