<svg width="25" height="27" viewBox="0 0 25 27" fill="none" xmlns="http://www.w3.org/2000/svg">
<path d="M21.0651 26.4748C23.2327 26.4748 25.0513 24.664 24.2922 22.6335C23.6668 20.9608 22.635 19.4236 21.2538 18.1486C18.8616 15.9404 15.617 14.6999 12.2339 14.6999C8.85074 14.6999 5.60616 15.9404 3.21392 18.1486C1.83272 19.4236 0.800968 20.9608 0.175574 22.6335C-0.58357 24.664 1.235 26.4748 3.4027 26.4748L21.0651 26.4748Z" fill="#584CE2"/>
<path d="M18.0832 6.54161C18.0832 10.1544 15.1544 13.0832 11.5416 13.0832C7.92878 13.0832 5 10.1544 5 6.54161C5 2.92878 7.92878 0 11.5416 0C15.1544 0 18.0832 2.92878 18.0832 6.54161Z" fill="#584CE2"/>
</svg>
