<svg width="22" height="18" viewBox="0 0 22 18" fill="none" xmlns="http://www.w3.org/2000/svg">
<path fill-rule="evenodd" clip-rule="evenodd" d="M21.25 2.5C21.25 1.39543 20.3546 0.5 19.25 0.5H2C0.895431 0.5 0 1.39543 0 2.5V15.5C0 16.6046 0.89543 17.5 2 17.5H19.25C20.3546 17.5 21.25 16.6046 21.25 15.5V2.5ZM18.4167 8.16667C18.4167 7.0621 17.5212 6.16667 16.4167 6.16667H4.83333C3.72876 6.16667 2.83333 7.0621 2.83333 8.16667V12.6667C2.83333 13.7712 3.72876 14.6667 4.83333 14.6667H16.4167C17.5212 14.6667 18.4167 13.7712 18.4167 12.6667V8.16667Z" fill="#606060"/>
</svg>
