<svg width="20" height="22" viewBox="0 0 20 22" fill="none" xmlns="http://www.w3.org/2000/svg">
<path fill-rule="evenodd" clip-rule="evenodd" d="M10 21.4915C8.57751 21.4915 5.71067 21.7046 5.62313 19.9997C5.51371 17.8686 3.54412 18.721 2.4499 17.4424C1.35568 16.1637 -0.285645 12.5408 0.0426201 8.27856C0.370885 4.01634 4.31007 0.5 10 0.5C15.9098 0.5 19.6291 4.01635 19.9574 8.27858C20.2856 12.5408 18.6443 16.1637 17.5501 17.4424C16.4559 18.721 14.4863 17.8686 14.3769 19.9997C14.2893 21.7046 11.4225 21.4915 10 21.4915ZM8.79636 18.8276C9.49666 18.8276 9.89058 18.1882 10 17.8686C10.1094 18.1882 10.5033 18.8276 11.2036 18.8276C12.079 18.8276 11.934 17.728 11.2036 16.4834C10.766 15.7375 10.3283 15.4178 10 15.4178C9.67174 15.4178 9.23405 15.7375 8.79636 16.4833C8.06599 17.728 7.92099 18.8276 8.79636 18.8276ZM8.03041 12.6473C8.03041 14.7785 6.27966 15.3112 5.40429 15.3112C4.52891 15.3112 2.75628 14.8211 2.66874 12.8605C2.55932 10.4097 4.62487 10.1966 5.07602 10.1966C5.51371 10.1966 8.03041 9.98345 8.03041 12.6473ZM11.9696 12.6474C11.9696 14.7785 13.7203 15.3113 14.5957 15.3113C15.4711 15.3113 17.2437 14.8211 17.3313 12.8605C17.4407 10.4097 15.3751 10.1966 14.924 10.1966C14.4863 10.1966 11.9696 9.98346 11.9696 12.6474Z" fill="#606060"/>
</svg>
