<svg width="14" height="16" viewBox="0 0 14 16" fill="none" xmlns="http://www.w3.org/2000/svg">
<path fill-rule="evenodd" clip-rule="evenodd" d="M7 15.4939C6.00426 15.4939 3.99747 15.6461 3.93619 14.4284C3.8596 12.9061 2.48088 13.515 1.71493 12.6017C0.948977 11.6883 -0.199952 9.10057 0.029834 6.05612C0.25962 3.01167 3.01705 0.5 7 0.5C11.1369 0.5 13.7404 3.01168 13.9702 6.05613C14.2 9.10058 13.051 11.6884 12.2851 12.6017C11.5191 13.515 10.1404 12.9061 10.0638 14.4284C10.0025 15.6461 7.99574 15.4939 7 15.4939ZM6.15745 13.5911C6.64766 13.5911 6.92341 13.1345 7 12.9061C7.07659 13.1345 7.35234 13.5911 7.84255 13.5911C8.45531 13.5911 8.35381 12.8057 7.84255 11.9167C7.53617 11.3839 7.22978 11.1556 7 11.1556C6.77022 11.1556 6.46384 11.3839 6.15745 11.9167C5.64619 12.8057 5.54469 13.5911 6.15745 13.5911ZM5.62129 9.17667C5.62129 10.6989 4.39576 11.0795 3.783 11.0795C3.17024 11.0795 1.9294 10.7293 1.86812 9.3289C1.79153 7.57834 3.23741 7.42612 3.55322 7.42612C3.8596 7.42612 5.62129 7.27389 5.62129 9.17667ZM8.37871 9.17668C8.37871 10.6989 9.60424 11.0795 10.217 11.0795C10.8298 11.0795 12.0706 10.7294 12.1319 9.32891C12.2085 7.57835 10.7626 7.42613 10.4468 7.42613C10.1404 7.42613 8.37871 7.2739 8.37871 9.17668Z" fill="#606060"/>
</svg>
